<svg xmlns="http://www.w3.org/2000/svg" width="83" height="16" fill="#000000" viewBox="0 0 83 16"><path fill="#000000" d="M4.455 7.852h-2.93V6.164h2.93c.48 0 .867-.078 1.164-.234.302-.162.524-.38.664-.657.14-.28.211-.601.211-.96 0-.35-.07-.675-.21-.977a1.698 1.698 0 00-.665-.734c-.297-.188-.685-.282-1.164-.282H2.23V12H.08V.625h4.375c.885 0 1.64.159 2.266.477.63.312 1.11.747 1.437 1.304.334.552.5 1.183.5 1.89 0 .735-.166 1.368-.5 1.9-.328.53-.807.94-1.437 1.226-.625.286-1.38.43-2.266.43zm5.258.007v-.164c0-.62.088-1.19.266-1.71.177-.527.434-.982.773-1.368a3.482 3.482 0 011.242-.898c.49-.219 1.047-.328 1.672-.328.635 0 1.198.109 1.688.328.494.213.911.513 1.25.898.338.386.596.841.773 1.367.177.521.266 1.092.266 1.711v.164c0 .615-.089 1.185-.266 1.711-.177.521-.435.977-.773 1.367a3.48 3.48 0 01-1.243.899c-.49.213-1.05.32-1.68.32-.624 0-1.184-.107-1.679-.32a3.465 3.465 0 01-1.25-.899 4.056 4.056 0 01-.773-1.367 5.33 5.33 0 01-.266-1.71zm2.062-.164v.164c0 .37.037.717.11 1.04.073.322.185.606.336.851.15.245.346.438.586.578.244.136.536.203.875.203.333 0 .62-.068.859-.203.24-.14.435-.333.586-.578.156-.245.27-.529.344-.852.073-.322.11-.669.11-1.039v-.164a4.57 4.57 0 00-.11-1.023 2.657 2.657 0 00-.344-.852 1.641 1.641 0 00-1.461-.804 1.622 1.622 0 00-1.445.804 2.772 2.772 0 00-.336.852c-.073.318-.11.659-.11 1.023zm9.72 2.274l1.85-6.422h1.313l-.39 2.219L22.4 12h-1.132l.226-2.031zM20.47 3.547l1.39 6.437.125 2.016h-1.304l-2.22-8.453h2.009zm5.906 6.344l1.36-6.344h2L27.532 12h-1.305l.149-2.11zm-1.516-6.344l1.836 6.36L26.94 12h-1.132l-1.883-6.234-.383-2.22h1.32zm9.891 8.61c-.64 0-1.216-.105-1.727-.313a3.792 3.792 0 01-1.304-.867 3.986 3.986 0 01-.82-1.305 4.546 4.546 0 01-.282-1.61V7.75a5.3 5.3 0 01.281-1.773c.188-.537.454-.998.797-1.383a3.507 3.507 0 011.235-.89 3.936 3.936 0 011.586-.313c.599 0 1.127.101 1.585.304.459.198.842.48 1.149.844.307.365.539.802.695 1.313a5.67 5.67 0 01.235 1.68v.866h-6.625V6.977h4.593V6.82a2.489 2.489 0 00-.187-.898 1.436 1.436 0 00-.531-.656c-.24-.167-.55-.25-.93-.25-.307 0-.576.067-.805.203-.224.13-.411.317-.562.562a2.79 2.79 0 00-.328.86c-.073.333-.11.703-.11 1.109v.313c0 .354.047.682.14.984.1.302.243.565.43.789.193.219.422.39.688.516.27.12.578.18.922.18.432 0 .823-.084 1.172-.25.354-.173.661-.425.922-.759l1.039 1.079c-.177.26-.417.51-.719.75a3.67 3.67 0 01-1.078.585c-.422.146-.909.22-1.461.22zm6.875-6.884V12h-2.063V3.547h1.954l.109 1.726zm2.57-1.78l-.031 1.921a3.66 3.66 0 00-.39-.047 5.404 5.404 0 00-.399-.015c-.318 0-.596.044-.836.132a1.56 1.56 0 00-.601.368 1.62 1.62 0 00-.36.593c-.083.23-.13.49-.14.782l-.446-.055c0-.537.055-1.034.164-1.492.11-.459.268-.86.477-1.203.208-.344.468-.61.781-.797.318-.193.682-.29 1.094-.29.114 0 .237.011.367.032.135.015.242.039.32.07zm4.774 8.663c-.64 0-1.216-.104-1.727-.312a3.791 3.791 0 01-1.304-.867 3.986 3.986 0 01-.82-1.305 4.546 4.546 0 01-.282-1.61V7.75a5.3 5.3 0 01.281-1.773c.188-.537.453-.998.797-1.383a3.508 3.508 0 011.234-.89 3.936 3.936 0 011.586-.313c.6 0 1.128.101 1.586.304.459.198.841.48 1.149.844.307.365.539.802.695 1.313.156.505.234 1.065.234 1.68v.866h-6.625V6.977h4.594V6.82a2.489 2.489 0 00-.187-.898 1.435 1.435 0 00-.532-.656c-.24-.167-.55-.25-.93-.25-.307 0-.575.067-.804.203-.224.13-.411.317-.563.562a2.79 2.79 0 00-.328.86c-.072.333-.109.703-.109 1.109v.313c0 .354.047.682.14.984.1.302.243.565.43.789.193.219.422.39.688.516.27.12.578.18.922.18.432 0 .823-.084 1.172-.25a2.61 2.61 0 00.922-.759l1.038 1.079a3.45 3.45 0 01-.718.75c-.297.24-.657.434-1.078.585-.422.146-.91.22-1.461.22zm9.883-1.953V0h2.078v12h-1.875l-.204-1.797zm-5.43-2.328v-.164c0-.646.073-1.232.219-1.758a4.12 4.12 0 01.656-1.367 3.01 3.01 0 011.039-.883 3.052 3.052 0 011.398-.312c.506 0 .946.101 1.32.304.38.203.704.493.97.868.27.375.486.82.648 1.335a9.18 9.18 0 01.351 1.688v.445a8.836 8.836 0 01-.351 1.649 4.68 4.68 0 01-.649 1.312c-.265.37-.588.656-.968.86-.38.203-.826.304-1.336.304-.516 0-.98-.107-1.39-.32a3.057 3.057 0 01-1.04-.899 4.328 4.328 0 01-.648-1.359 6.297 6.297 0 01-.22-1.703zm2.07-.164v.164c0 .365.031.706.094 1.023.062.318.164.6.305.844.14.24.32.427.539.563.224.135.494.203.812.203.406 0 .74-.089 1-.266.266-.182.471-.43.617-.742.146-.318.24-.674.282-1.07V7.203a3.462 3.462 0 00-.165-.867 2.054 2.054 0 00-.359-.688 1.592 1.592 0 00-.562-.453 1.798 1.798 0 00-.797-.164c-.318 0-.589.07-.813.211a1.556 1.556 0 00-.547.57 2.89 2.89 0 00-.312.852 5.511 5.511 0 00-.094 1.047zM66.775 0h2.07v10.133L68.644 12h-1.868V0zm7.508 7.688v.164c0 .63-.07 1.208-.21 1.734a4.064 4.064 0 01-.618 1.367c-.276.38-.62.677-1.031.89-.406.21-.883.313-1.43.313-.52 0-.974-.101-1.36-.304-.38-.204-.7-.49-.96-.86a4.77 4.77 0 01-.625-1.32A10.171 10.171 0 0167.697 8v-.445c.078-.61.196-1.167.352-1.672a4.77 4.77 0 01.625-1.32c.26-.375.58-.665.96-.868.381-.203.829-.304 1.344-.304.553 0 1.034.106 1.446.32.416.208.76.505 1.031.89.276.38.482.834.617 1.36.14.52.211 1.096.211 1.726zm-2.07.164v-.165c0-.359-.029-.697-.086-1.015a2.873 2.873 0 00-.281-.852 1.499 1.499 0 00-.532-.578c-.223-.14-.505-.21-.843-.21-.323 0-.6.054-.828.163-.224.11-.412.26-.563.453-.146.193-.26.42-.344.68-.078.26-.13.542-.156.844V8.39c.037.4.123.763.258 1.086.135.317.336.57.602.757.27.188.62.282 1.046.282.334 0 .612-.066.836-.196.224-.135.401-.323.531-.562.13-.245.222-.529.274-.852.057-.323.086-.674.086-1.054zm5.953 3.21l2.266-7.515h2.21l-3.39 9.734c-.078.209-.18.435-.305.68-.12.245-.281.476-.484.695a2.32 2.32 0 01-.766.547c-.302.14-.669.211-1.101.211a2.87 2.87 0 01-.5-.039c-.146-.026-.3-.06-.461-.102v-1.546c.052.005.112.007.18.007.072.006.135.008.187.008.302 0 .552-.036.75-.11a.987.987 0 00.477-.335 1.87 1.87 0 00.312-.594l.625-1.64zm-1.117-7.515l1.914 6.226.336 2.18-1.422.258-3.055-8.664h2.227z"/></svg>