<svg xmlns="http://www.w3.org/2000/svg" width="135" height="32" fill="none" viewBox="0 0 135 32"><path fill="#FAA61A" fill-rule="evenodd" d="M0 19.88V32l17.373-9.038v-12.12L0 19.88z" clip-rule="evenodd"/><path fill="#FFC905" fill-rule="evenodd" d="M0 12.12l17.373 10.842v-12.12L0 0v12.12z" clip-rule="evenodd"/><path fill="#1D3A6C" fill-rule="evenodd" d="M32.829 19.872l-.218 2.81c-1.019.465-1.553.611-2.765.611-1.89 0-3.733-1.196-3.733-4.055V13.62h-1.988v-2.735h1.988V8.05h3.2v2.834h3.249v2.737h-3.25v5.471c0 1.076.583 1.491 1.31 1.491.51 0 1.067-.123 1.842-.709h.365zm9.818-5.373a2.794 2.794 0 00-2.11-.977c-1.382 0-2.666.854-2.666 2.859v6.57h-3.2V10.884h3.2v1.197a3.94 3.94 0 013.079-1.538c.92 0 1.43.195 1.94.562l.218 3.394h-.462zm4.992 3.469c0 1.612.97 2.345 2.279 2.345 1.527 0 2.714-1.196 2.714-3.2v-6.229h3.201v12.067h-3.2v-1.49c-.849 1.1-2.351 1.832-3.928 1.832-2.52 0-4.267-1.367-4.267-4.177v-8.233h3.2v7.085zm11.033 1.123c.849.66 1.915 1.222 3.224 1.222.873 0 1.528-.318 1.528-1.001 0-.71-.63-1.027-2.352-1.613-1.819-.61-2.91-1.808-2.91-3.42 0-2.272 1.916-3.737 4.413-3.737 1.31 0 2.255.244 3.151.782l.121 3.077h-.169c-.994-.659-1.842-1.123-3.079-1.123-.8 0-1.382.367-1.382.88 0 .708.582 1.05 2.304 1.636 1.672.561 3.103 1.27 3.103 3.518 0 2.662-2.182 3.98-4.558 3.98-1.794 0-3.2-.462-4.267-1.172l.727-3.029h.146zm17.191.781l-.218 2.81c-1.018.465-1.551.611-2.764.611-1.89 0-3.734-1.196-3.734-4.055V13.62H67.16v-2.735h1.987V8.05h3.201v2.834h3.248v2.737h-3.248v5.471c0 1.076.581 1.491 1.31 1.491.509 0 1.066-.123 1.841-.709h.364zm17.092-4.201c0-1.465-.679-2.15-1.842-2.15-1.407 0-2.571 1.174-2.571 2.933v6.497h-3.2v-7.28c0-1.466-.63-2.15-1.867-2.15-1.406 0-2.57 1.221-2.57 3.053v6.376h-3.2V10.884h3.2v1.49c.752-1.05 2.305-1.831 3.782-1.831 1.625 0 2.886.536 3.516 1.708 1.043-1.098 2.328-1.708 4.121-1.708 2.304 0 3.831 1.416 3.831 3.834v8.574h-3.2v-7.28zm5.063 1.246c0-3.517 2.666-6.375 6.012-6.375 1.575 0 2.909.587 3.588 1.441v-1.099h3.201v12.067h-3.201v-1.1c-.873.832-1.867 1.442-3.781 1.442-2.861 0-5.82-2.393-5.82-6.376zm9.746 0c0-1.855-1.238-3.395-3.273-3.395-2.037 0-3.273 1.54-3.273 3.395 0 1.858 1.236 3.396 3.273 3.396 2.035 0 3.273-1.538 3.273-3.396zm13.601-2.418a2.8 2.8 0 00-2.111-.977c-1.38 0-2.666.854-2.666 2.859v6.57h-3.201V10.884h3.201v1.197a3.92 3.92 0 013.079-1.538c.921 0 1.431.195 1.94.562l.218 3.394h-.46zM131.703 10.883l-2.91 6.327-2.934-6.327h-3.297l4.704 9.722-4.049 7.866h3.297L135 10.883h-3.297z" clip-rule="evenodd"/><line x1="25" y1="28" x2="121" y2="28" stroke="#1D3A6C" stroke-width="2"/></svg>